<?xml version="1.0" encoding="UTF-8"?>
<svg id="Layer_2" data-name="Layer 2" xmlns="http://www.w3.org/2000/svg" viewBox="0 0 148.07 66.96">
  <defs>
    <style>
      .cls-1 {
        fill: #eae2b7;
        stroke-width: 0px;
      }
    </style>
  </defs>
  <g id="Layer_1-2" data-name="Layer 1">
    <g>
      <path class="cls-1" d="m61.31,66.96c-1.03,0-1.93-.15-2.65-.45l-.2-.08.06-.21c1.95-6.63,4.67-17.68,5.46-22.18l-2.68-.84-.02-.15c-.68-4.99-3.03-10.13-4.91-12.79l-.06-.09.03-.11c.45-1.85,1.92-4.01,3.57-5.23l.27-.2.11.32c1.29,3.88,3.2,9.27,5.17,12.28,1.35-5.5,2.95-13.38,3.57-19.11l.02-.14.13-.06c1.78-.77,3.86-1.23,5.58-1.23.76,0,1.42.09,1.97.26l.26.08-.11.25c-4.85,11.39-10.03,36.23-10.86,48.59v.15s-.15.06-.15.06c-1.29.55-3.03.89-4.55.89Z"/>
      <path class="cls-1" d="m1.27,22.97c-.01-.12.07-.22.18-.25.79-.17,2.4-.4,4.25.22,1.73.57,2.84,1.59,3.4,2.2.12.13.18.31.16.48-.4,3.32-.76,6.69-1.09,10.13-.84,8.9-1.34,17.47-1.57,25.67,3.05-1.72,6.22-3.43,9.5-5.12,1.16-.6,2.31-1.18,3.45-1.75.5.37,1.19.97,1.79,1.87.98,1.48,1.17,2.95,1.21,3.68-1.39.38-2.81.8-4.26,1.28-4.74,1.56-8.95,3.4-12.64,5.3-.85-.33-1.78-.73-2.75-1.23-1.1-.56-2.06-1.15-2.9-1.71.73-4.76,1.3-9.92,1.64-15.42.56-9.35.3-17.87-.36-25.36Z"/>
      <g>
        <path class="cls-1" d="m120,29.99c9.57-2.71,18.87-5.06,28.07-6.84-4.09-2.43-7.88-3.77-15.03-2.85,0,0-5.08,1.95-12.27,4.71-.17,1.7-.47,3.46-.77,4.99Z"/>
        <path class="cls-1" d="m112.53,28.16c-17.1,6.57-38.72,14.91-38.98,15.15-.51.46-.16.95.11.86,13.45-4.15,26.11-8.24,38.29-11.85.22-1.25.43-2.79.58-4.16Z"/>
      </g>
      <path class="cls-1" d="m38.02,46.82c-.44,1.28-1.08,2.66-2.03,3.63s-2.22,1.66-3.57,1.79c-1.35.12-2.78-.37-3.66-1.4-.6-.71-.92-1.63-1.05-2.55-.13-.92-.12-1.87-.08-2.8,2.29.52,4.77-.51,6.27-2.31,1.5-1.81,2.05-4.28,1.79-6.61-.08-.75-.26-1.51-.71-2.12-.69-.92-1.9-1.29-3.05-1.34-2.91-.12-5.5,1.55-7.26,3.87s-3.12,5.43-3.53,8.31c-.29,2.06-.26,4.19.32,6.19s1.88,3.86,3.78,4.73c1.06.48,2.3.8,3.47.79,2.14-.01,4.25-.74,6.08-1.86s3.35-2.88,4.09-4.89c.4-1.08.59-2.3.59-2.3,0,0-.34-1.18-1.45-1.13Zm-9.57-6.44c.36-1.23.66-2.01,1.52-3.46.93-1.57,1.37-.38,1.42-.2.92,3.02-.68,6.5-2.41,7.37-.52.26-1.21.28-1.21.28,0,0,.03-1.74.68-3.99Z"/>
      <path class="cls-1" d="m99.06,30.28c-3.34-.33-6.78-3.24-7.62-5.74-.97,2.82-3.35,10.78-7.67,11.64-1.08.22-2.21-.3-3.08-.98-1.54-1.18-2.32-3.06-2.66-4.98s-.28-3.89.02-5.81c.59-3.85,1.97-7.69,3.43-11.3,1.29-.53,3.96-1.09,5.48-.45-1.98,4.33-3.57,13.15-1.85,15.58,1.9-2.28,3.84-7.18,4.67-9.42.64-1.74,2.81-8.91,4.03-10.53,1.83-.72,4.58-.95,5.89-.38-2.02,4.03-2.73,6.77-3.12,11.4-.43,5.05,1.44,8.35,2.87,9.25.12.08.26.29.25.7-.02.59-.36.87-.64,1.01Z"/>
      <path class="cls-1" d="m114.53.3c-.03.79-.05,2-.06,2.75-3.3-2.16-7.5-.79-10.26,3.2-2.05,2.97-3.18,6.17-3.74,9.74-.51,3.23-.22,6.67,1.84,9.21.83,1.03,3.99,3.47,7.1.63,2.34-2.15,3.49-4.55,4.52-7.29,0,0,.45,13.73-3.09,21.29-4.14,8.87-14.06,10.12-19.85,9.27-.03,0-.05,0-.08-.01-.41.25-.48.84-.48.84,0,0,11.96,5.57,22.03-3.49,3.82-3.44,6.32-10.88,7.62-24.36,1.13-11.75,1.7-21.13,1.7-21.13-1.41-.73-4.52-1.31-7.25-.64Zm-.51,7.42c-.31,3.33-2.24,10.48-5.44,13.16-1.24-1.71-1.38-4.38-1.18-6.68.27-3.03,1.41-5.62,2.46-7.08,1.86-2.58,4.46-2.67,4.16.59Z"/>
      <path class="cls-1" d="m55.92,24.45c-2.06-.55-4.92.29-6.57,1.19-1.51,9.37-1.6,20.09-1.6,20.09-1.48-1.5-2.2-3.59-2.64-5.65-.49-2.3-.7-4.64-.62-6.99-.88-.55-3.29-1.39-6.47-.47.15,3.08.96,7.48,2.03,10.34.4,1.06,1.12,2.43,1.8,3.33,1.55,2.04,3.19,3.19,5.75,3.49.94.11,2.14.06,2.64-.74.22-.35.4-.85.55-1.66.19-1.01,1.84-14.44,5.13-22.92Z"/>
    </g>
  </g>
</svg>