<?xml version="1.0" encoding="UTF-8"?>
<svg id="Layer_2" data-name="Layer 2" xmlns="http://www.w3.org/2000/svg" viewBox="0 0 119.28 53.94">
  <defs>
    <style>
      .cls-1 {
        fill: #141f2d;
        stroke-width: 0px;
      }
    </style>
  </defs>
  <g id="Layer_1-2" data-name="Layer 1">
    <g>
      <path class="cls-1" d="m49.39,53.94c-.83,0-1.55-.12-2.14-.36l-.16-.07.05-.17c1.57-5.34,3.76-14.24,4.4-17.87l-2.16-.68-.02-.12c-.55-4.02-2.44-8.16-3.96-10.3l-.05-.07.02-.09c.36-1.49,1.55-3.23,2.88-4.21l.22-.16.09.26c1.04,3.12,2.58,7.47,4.16,9.89,1.09-4.43,2.38-10.78,2.88-15.39v-.11s.12-.05.12-.05c1.43-.62,3.11-.99,4.49-.99.61,0,1.15.07,1.59.21l.21.06-.08.2c-3.91,9.17-8.08,29.19-8.75,39.14v.12s-.12.05-.12.05c-1.04.44-2.44.72-3.66.72Z"/>
      <path class="cls-1" d="m1.03,18.51c0-.09.05-.18.15-.2.64-.14,1.93-.32,3.43.18,1.39.46,2.29,1.28,2.74,1.77.1.11.14.25.13.39-.32,2.67-.61,5.39-.88,8.16-.68,7.17-1.08,14.07-1.27,20.68,2.46-1.38,5.01-2.76,7.66-4.12.93-.48,1.86-.95,2.78-1.41.41.3.96.78,1.44,1.51.79,1.19.94,2.38.97,2.97-1.12.3-2.26.65-3.43,1.03-3.82,1.25-7.21,2.74-10.19,4.27-.69-.27-1.43-.59-2.22-.99-.88-.45-1.66-.92-2.34-1.38.58-3.84,1.05-7.99,1.32-12.43.45-7.53.24-14.4-.29-20.43Z"/>
      <g>
        <path class="cls-1" d="m96.67,24.16c7.71-2.18,15.2-4.07,22.61-5.51-3.29-1.96-6.35-3.04-12.11-2.3,0,0-4.09,1.57-9.88,3.79-.14,1.37-.38,2.79-.62,4.02Z"/>
        <path class="cls-1" d="m90.66,22.69c-13.77,5.29-31.19,12.01-31.4,12.21-.41.37-.13.76.09.7,10.84-3.34,21.04-6.63,30.85-9.55.18-1.01.34-2.25.47-3.35Z"/>
      </g>
      <path class="cls-1" d="m30.63,37.71c-.36,1.03-.87,2.15-1.63,2.93s-1.79,1.34-2.88,1.44c-1.09.1-2.24-.3-2.95-1.13-.49-.57-.74-1.31-.85-2.06-.11-.74-.09-1.5-.06-2.25,1.84.42,3.85-.41,5.05-1.86,1.2-1.45,1.65-3.45,1.44-5.32-.07-.6-.21-1.22-.57-1.71-.55-.74-1.53-1.04-2.45-1.08-2.34-.1-4.43,1.25-5.85,3.11-1.42,1.87-2.51,4.37-2.84,6.69-.24,1.66-.21,3.38.25,4.99s1.52,3.11,3.04,3.81c.85.39,1.85.64,2.79.64,1.73-.01,3.42-.59,4.89-1.5s2.7-2.32,3.3-3.94c.32-.87.48-1.85.48-1.85,0,0-.27-.95-1.17-.91Zm-7.71-5.19c.29-.99.53-1.62,1.22-2.79.75-1.27,1.1-.31,1.15-.16.74,2.43-.55,5.24-1.94,5.94-.42.21-.97.22-.97.22,0,0,.02-1.4.55-3.21Z"/>
      <path class="cls-1" d="m79.8,24.39c-2.69-.27-5.47-2.61-6.14-4.62-.78,2.27-2.7,8.68-6.18,9.38-.87.17-1.78-.25-2.48-.79-1.24-.95-1.87-2.46-2.14-4.01s-.22-3.13.02-4.68c.48-3.1,1.59-6.19,2.76-9.1,1.04-.42,3.19-.88,4.41-.36-1.6,3.49-2.87,10.6-1.49,12.55,1.53-1.84,3.09-5.78,3.76-7.59.52-1.4,2.26-7.18,3.25-8.48,1.48-.58,3.69-.76,4.74-.3-1.63,3.24-2.2,5.45-2.52,9.19-.35,4.06,1.16,6.73,2.32,7.45.1.06.21.23.2.56-.01.47-.29.7-.52.81Z"/>
      <path class="cls-1" d="m92.26.24c-.02.63-.04,1.61-.05,2.22-2.66-1.74-6.04-.64-8.26,2.58-1.65,2.39-2.56,4.97-3.01,7.85-.41,2.6-.18,5.37,1.48,7.42.67.83,3.22,2.8,5.72.5,1.89-1.73,2.81-3.66,3.64-5.88,0,0,.36,11.06-2.49,17.15-3.34,7.14-11.33,8.15-15.99,7.47-.02,0-.04,0-.07,0-.33.2-.39.68-.39.68,0,0,9.63,4.49,17.75-2.81,3.08-2.77,5.09-8.77,6.14-19.62.91-9.47,1.37-17.02,1.37-17.02-1.14-.59-3.64-1.06-5.84-.52Zm-.41,5.98c-.25,2.68-1.8,8.44-4.39,10.6-1-1.38-1.11-3.53-.95-5.38.22-2.44,1.14-4.52,1.98-5.7,1.5-2.08,3.59-2.15,3.35.48Z"/>
      <path class="cls-1" d="m45.04,19.7c-1.66-.44-3.96.23-5.29.96-1.22,7.55-1.29,16.18-1.29,16.18-1.19-1.21-1.77-2.89-2.13-4.55-.4-1.85-.57-3.74-.5-5.63-.71-.45-2.65-1.12-5.21-.38.12,2.48.78,6.03,1.63,8.33.32.85.9,1.96,1.45,2.69,1.25,1.64,2.57,2.57,4.63,2.81.76.09,1.72.05,2.12-.6.17-.28.32-.69.44-1.34.15-.81,1.49-11.63,4.13-18.47Z"/>
    </g>
  </g>
</svg>